<svg xmlns="http://www.w3.org/2000/svg" width="320" height="200" viewBox="0 0 320 200" fill="none">
  <defs>
    <linearGradient id="g" x1="0" y1="0" x2="1" y2="1">
      <stop offset="0" stop-color="#64748B" stop-opacity="0.25"/>
      <stop offset="1" stop-color="#94A3B8" stop-opacity="0.35"/>
    </linearGradient>
  </defs>
  <rect x="0" y="0" width="320" height="200" rx="16" fill="url(#g)"/>
  <g transform="translate(0,10)">
    <rect x="40" y="90" width="240" height="52" rx="10" fill="#0f172a" fill-opacity="0.25"/>
    <rect x="70" y="80" width="180" height="36" rx="8" fill="#0f172a" fill-opacity="0.25"/>
    <path d="M70 120h26c5 0 9-4 9-9v-6c0-3-1-5-3-7l-9-9c-2-2-5-3-7-3h-16c-3 0-5 2-6 4l-5 11c-1 2-2 4-2 7v3c0 5 4 9 9 9z" fill="#cbd5e1" fill-opacity="0.28"/>
    <circle cx="105" cy="127" r="10" fill="#94a3b8" fill-opacity="0.6"/>
    <circle cx="215" cy="127" r="10" fill="#94a3b8" fill-opacity="0.6"/>
  </g>
  <text x="160" y="175" text-anchor="middle" font-family="system-ui, -apple-system, Segoe UI, Roboto, Ubuntu, Cantarell, Noto Sans, sans-serif" font-size="22" fill="#94A3B8" fill-opacity="0.5">DS</text>
</svg>
